solid khafre_pyramid_survey_envelope
  facet normal 0 -0.800715324 0.599045048
    outer loop
      vertex -107.631230000 -107.631230000 -71.932800000
      vertex 107.631230000 -107.631230000 -71.932800000
      vertex 0.000000000 0.000000000 71.932800000
    endloop
  endfacet
  facet normal 0.800715324 -0 0.599045048
    outer loop
      vertex 107.631230000 -107.631230000 -71.932800000
      vertex 107.631230000 107.631230000 -71.932800000
      vertex 0.000000000 0.000000000 71.932800000
    endloop
  endfacet
  facet normal 0 0.800715324 0.599045048
    outer loop
      vertex 107.631230000 107.631230000 -71.932800000
      vertex -107.631230000 107.631230000 -71.932800000
      vertex 0.000000000 0.000000000 71.932800000
    endloop
  endfacet
  facet normal -0.800715324 0 0.599045048
    outer loop
      vertex -107.631230000 107.631230000 -71.932800000
      vertex -107.631230000 -107.631230000 -71.932800000
      vertex 0.000000000 0.000000000 71.932800000
    endloop
  endfacet
  facet normal 0 0 -1
    outer loop
      vertex -107.631230000 -107.631230000 -71.932800000
      vertex -107.631230000 107.631230000 -71.932800000
      vertex 107.631230000 107.631230000 -71.932800000
    endloop
  endfacet
  facet normal 0 0 -1
    outer loop
      vertex -107.631230000 -107.631230000 -71.932800000
      vertex 107.631230000 107.631230000 -71.932800000
      vertex 107.631230000 -107.631230000 -71.932800000
    endloop
  endfacet
endsolid khafre_pyramid_survey_envelope
