solid khafre_sarcophagus_lid
  facet normal 0 0 -1
    outer loop
      vertex -1.317371000 -0.533781000 -0.114871500
      vertex 1.317371000 0.533781000 -0.114871500
      vertex 1.317371000 -0.533781000 -0.114871500
    endloop
  endfacet
  facet normal 0 0 -1
    outer loop
      vertex -1.317371000 -0.533781000 -0.114871500
      vertex -1.317371000 0.533781000 -0.114871500
      vertex 1.317371000 0.533781000 -0.114871500
    endloop
  endfacet
  facet normal 0 0 1
    outer loop
      vertex -1.317371000 -0.533781000 0.114871500
      vertex 1.317371000 -0.533781000 0.114871500
      vertex 1.317371000 0.533781000 0.114871500
    endloop
  endfacet
  facet normal 0 0 1
    outer loop
      vertex -1.317371000 -0.533781000 0.114871500
      vertex 1.317371000 0.533781000 0.114871500
      vertex -1.317371000 0.533781000 0.114871500
    endloop
  endfacet
  facet normal 0 -1 0
    outer loop
      vertex -1.317371000 -0.533781000 -0.114871500
      vertex 1.317371000 -0.533781000 -0.114871500
      vertex 1.317371000 -0.533781000 0.114871500
    endloop
  endfacet
  facet normal 0 -1 0
    outer loop
      vertex -1.317371000 -0.533781000 -0.114871500
      vertex 1.317371000 -0.533781000 0.114871500
      vertex -1.317371000 -0.533781000 0.114871500
    endloop
  endfacet
  facet normal 1 0 0
    outer loop
      vertex 1.317371000 -0.533781000 -0.114871500
      vertex 1.317371000 0.533781000 -0.114871500
      vertex 1.317371000 0.533781000 0.114871500
    endloop
  endfacet
  facet normal 1 0 0
    outer loop
      vertex 1.317371000 -0.533781000 -0.114871500
      vertex 1.317371000 0.533781000 0.114871500
      vertex 1.317371000 -0.533781000 0.114871500
    endloop
  endfacet
  facet normal 0 1 0
    outer loop
      vertex 1.317371000 0.533781000 -0.114871500
      vertex -1.317371000 0.533781000 -0.114871500
      vertex -1.317371000 0.533781000 0.114871500
    endloop
  endfacet
  facet normal 0 1 -0
    outer loop
      vertex 1.317371000 0.533781000 -0.114871500
      vertex -1.317371000 0.533781000 0.114871500
      vertex 1.317371000 0.533781000 0.114871500
    endloop
  endfacet
  facet normal -1 0 0
    outer loop
      vertex -1.317371000 0.533781000 -0.114871500
      vertex -1.317371000 -0.533781000 -0.114871500
      vertex -1.317371000 -0.533781000 0.114871500
    endloop
  endfacet
  facet normal -1 0 0
    outer loop
      vertex -1.317371000 0.533781000 -0.114871500
      vertex -1.317371000 -0.533781000 0.114871500
      vertex -1.317371000 0.533781000 0.114871500
    endloop
  endfacet
endsolid khafre_sarcophagus_lid
