solid khafre_lower_granite_casing_belt
  facet normal 0 -0.800382738 0.599489344
    outer loop
      vertex -107.631230000 -107.631230000 -0.527304000
      vertex 107.631230000 -107.631230000 -0.527304000
      vertex 106.841325086 -106.841325086 0.527304000
    endloop
  endfacet
  facet normal 0 -0.800382738 0.599489344
    outer loop
      vertex -107.631230000 -107.631230000 -0.527304000
      vertex 106.841325086 -106.841325086 0.527304000
      vertex -106.841325086 -106.841325086 0.527304000
    endloop
  endfacet
  facet normal 0 0.800382738 -0.599489344
    outer loop
      vertex -107.571230000 -107.571230000 -0.527304000
      vertex 106.781325086 -106.781325086 0.527304000
      vertex 107.571230000 -107.571230000 -0.527304000
    endloop
  endfacet
  facet normal 0 0.800382738 -0.599489344
    outer loop
      vertex -107.571230000 -107.571230000 -0.527304000
      vertex -106.781325086 -106.781325086 0.527304000
      vertex 106.781325086 -106.781325086 0.527304000
    endloop
  endfacet
  facet normal 0 0 1
    outer loop
      vertex -106.841325086 -106.841325086 0.527304000
      vertex 106.841325086 -106.841325086 0.527304000
      vertex 106.781325086 -106.781325086 0.527304000
    endloop
  endfacet
  facet normal 0 0 1
    outer loop
      vertex -106.841325086 -106.841325086 0.527304000
      vertex 106.781325086 -106.781325086 0.527304000
      vertex -106.781325086 -106.781325086 0.527304000
    endloop
  endfacet
  facet normal 0.800382738 -0 0.599489344
    outer loop
      vertex 107.631230000 -107.631230000 -0.527304000
      vertex 107.631230000 107.631230000 -0.527304000
      vertex 106.841325086 106.841325086 0.527304000
    endloop
  endfacet
  facet normal 0.800382738 0 0.599489344
    outer loop
      vertex 107.631230000 -107.631230000 -0.527304000
      vertex 106.841325086 106.841325086 0.527304000
      vertex 106.841325086 -106.841325086 0.527304000
    endloop
  endfacet
  facet normal -0.800382738 0 -0.599489344
    outer loop
      vertex 107.571230000 -107.571230000 -0.527304000
      vertex 106.781325086 106.781325086 0.527304000
      vertex 107.571230000 107.571230000 -0.527304000
    endloop
  endfacet
  facet normal -0.800382738 0 -0.599489344
    outer loop
      vertex 107.571230000 -107.571230000 -0.527304000
      vertex 106.781325086 -106.781325086 0.527304000
      vertex 106.781325086 106.781325086 0.527304000
    endloop
  endfacet
  facet normal 0 -0 1
    outer loop
      vertex 106.841325086 -106.841325086 0.527304000
      vertex 106.841325086 106.841325086 0.527304000
      vertex 106.781325086 106.781325086 0.527304000
    endloop
  endfacet
  facet normal 0 0 1
    outer loop
      vertex 106.841325086 -106.841325086 0.527304000
      vertex 106.781325086 106.781325086 0.527304000
      vertex 106.781325086 -106.781325086 0.527304000
    endloop
  endfacet
  facet normal 0 0.800382738 0.599489344
    outer loop
      vertex 107.631230000 107.631230000 -0.527304000
      vertex -107.631230000 107.631230000 -0.527304000
      vertex -106.841325086 106.841325086 0.527304000
    endloop
  endfacet
  facet normal 0 0.800382738 0.599489344
    outer loop
      vertex 107.631230000 107.631230000 -0.527304000
      vertex -106.841325086 106.841325086 0.527304000
      vertex 106.841325086 106.841325086 0.527304000
    endloop
  endfacet
  facet normal -0 -0.800382738 -0.599489344
    outer loop
      vertex 107.571230000 107.571230000 -0.527304000
      vertex -106.781325086 106.781325086 0.527304000
      vertex -107.571230000 107.571230000 -0.527304000
    endloop
  endfacet
  facet normal 0 -0.800382738 -0.599489344
    outer loop
      vertex 107.571230000 107.571230000 -0.527304000
      vertex 106.781325086 106.781325086 0.527304000
      vertex -106.781325086 106.781325086 0.527304000
    endloop
  endfacet
  facet normal 0 0 1
    outer loop
      vertex 106.841325086 106.841325086 0.527304000
      vertex -106.841325086 106.841325086 0.527304000
      vertex -106.781325086 106.781325086 0.527304000
    endloop
  endfacet
  facet normal 0 0 1
    outer loop
      vertex 106.841325086 106.841325086 0.527304000
      vertex -106.781325086 106.781325086 0.527304000
      vertex 106.781325086 106.781325086 0.527304000
    endloop
  endfacet
  facet normal -0.800382738 0 0.599489344
    outer loop
      vertex -107.631230000 107.631230000 -0.527304000
      vertex -107.631230000 -107.631230000 -0.527304000
      vertex -106.841325086 -106.841325086 0.527304000
    endloop
  endfacet
  facet normal -0.800382738 0 0.599489344
    outer loop
      vertex -107.631230000 107.631230000 -0.527304000
      vertex -106.841325086 -106.841325086 0.527304000
      vertex -106.841325086 106.841325086 0.527304000
    endloop
  endfacet
  facet normal 0.800382738 0 -0.599489344
    outer loop
      vertex -107.571230000 107.571230000 -0.527304000
      vertex -106.781325086 -106.781325086 0.527304000
      vertex -107.571230000 -107.571230000 -0.527304000
    endloop
  endfacet
  facet normal 0.800382738 0 -0.599489344
    outer loop
      vertex -107.571230000 107.571230000 -0.527304000
      vertex -106.781325086 106.781325086 0.527304000
      vertex -106.781325086 -106.781325086 0.527304000
    endloop
  endfacet
  facet normal 0 0 1
    outer loop
      vertex -106.841325086 106.841325086 0.527304000
      vertex -106.841325086 -106.841325086 0.527304000
      vertex -106.781325086 -106.781325086 0.527304000
    endloop
  endfacet
  facet normal 0 0 1
    outer loop
      vertex -106.841325086 106.841325086 0.527304000
      vertex -106.781325086 -106.781325086 0.527304000
      vertex -106.781325086 106.781325086 0.527304000
    endloop
  endfacet
endsolid khafre_lower_granite_casing_belt
